<?xml version="1.0" standalone="no"?>
<svg xmlns="http://www.w3.org/2000/svg" xmlns:xlink="http://www.w3.org/1999/xlink" width="675pt" height="794pt" viewBox="0.00 0.00 675.18 793.51">
<g id="graph0" class="graph" transform="translate(4,789.510009765625) scale(1)" data-name="AFD_Relacionais">

<polygon fill="white" stroke="none" points="-4,4 -4,-789.51 671.18,-789.51 671.18,4 -4,4" style=""/>
<text text-anchor="middle" x="333.59" y="-768.91" font-family="Times,serif" font-size="14.00" style="">"AFD para Operações Aritiméticas"</text>
<!-- qi -->
<g id="node1" class="node" pointer-events="visible" data-name="qi">

<ellipse fill="black" stroke="black" cx="1.8" cy="-225.48" rx="1.8" ry="1.8" style=""/>
</g>
<!-- q0 -->
<g id="node2" class="node" pointer-events="visible" data-name="q0">

<ellipse fill="none" stroke="black" cx="93.52" cy="-225.48" rx="52.85" ry="52.85" style=""/>
<text text-anchor="middle" x="93.52" y="-222.48" font-family="Courier,monospace" font-size="10.00" style="">q0 (Inicial)</text>
</g>
<!-- qi&#45;&gt;q0 -->
<g id="edge1" class="edge" data-name="qi-&gt;q0">

<path fill="none" stroke="black" d="M4.07,-225.48C7.43,-225.48 17.11,-225.48 28.9,-225.48" style=""/>
<polygon fill="black" stroke="black" points="28.69,-228.98 38.69,-225.48 28.69,-221.98 28.69,-228.98" style=""/>
</g>
<!-- q4_lt -->
<g id="node3" class="node" pointer-events="visible" data-name="q4_lt">

<ellipse fill="none" stroke="black" cx="262.75" cy="-471.48" rx="67.22" ry="67.22" style=""/>
<text text-anchor="middle" x="262.75" y="-468.48" font-family="Courier,monospace" font-size="10.00" style="">q4_lt (Apos '&lt;')</text>
</g>
<!-- q0&#45;&gt;q4_lt -->
<g id="edge3" class="edge" data-name="q0-&gt;q4_lt">

<path fill="none" stroke="black" d="M124.04,-268.89C149.98,-307.06 188.1,-363.14 217.66,-406.62" style=""/>
<polygon fill="black" stroke="black" points="214.66,-408.43 223.17,-414.73 220.45,-404.49 214.66,-408.43" style=""/>
<text text-anchor="middle" x="170.92" y="-344.68" font-family="Times,serif" font-size="14.00" style="">'&lt;'</text>
</g>
<!-- q4_gt -->
<g id="node4" class="node" pointer-events="visible" data-name="q4_gt">

<ellipse fill="none" stroke="black" cx="262.75" cy="-225.48" rx="67.22" ry="67.22" style=""/>
<text text-anchor="middle" x="262.75" y="-222.48" font-family="Courier,monospace" font-size="10.00" style="">q4_gt (Apos '&gt;')</text>
</g>
<!-- q0&#45;&gt;q4_gt -->
<g id="edge7" class="edge" data-name="q0-&gt;q4_gt">

<path fill="none" stroke="black" d="M146.52,-225.48C158.46,-225.48 171.41,-225.48 184.16,-225.48" style=""/>
<polygon fill="black" stroke="black" points="183.79,-228.98 193.79,-225.48 183.79,-221.98 183.79,-228.98" style=""/>
<text text-anchor="middle" x="170.92" y="-229.68" font-family="Times,serif" font-size="14.00" style="">'&gt;'</text>
</g>
<!-- q_acc_eq -->
<g id="node5" class="node" pointer-events="visible" data-name="q_acc_eq">

<ellipse fill="none" stroke="black" cx="262.75" cy="-73.48" rx="62.45" ry="62.45" style=""/>
<ellipse fill="none" stroke="black" cx="262.75" cy="-73.48" rx="66.47" ry="66.47" style=""/>
<text text-anchor="middle" x="262.75" y="-76.48" font-family="Courier,monospace" font-size="10.00" style="">q_acc_eq</text>
<text text-anchor="middle" x="262.75" y="-64.48" font-family="Courier,monospace" font-size="10.00" style="">(Emitir '=')</text>
</g>
<!-- q0&#45;&gt;q_acc_eq -->
<g id="edge2" class="edge" data-name="q0-&gt;q_acc_eq">

<path fill="none" stroke="black" d="M133.31,-190.22C154.45,-171.01 181.02,-146.86 204.49,-125.52" style=""/>
<polygon fill="black" stroke="black" points="206.82,-128.13 211.87,-118.82 202.11,-122.95 206.82,-128.13" style=""/>
<text text-anchor="middle" x="170.92" y="-163.68" font-family="Times,serif" font-size="14.00" style="">'='</text>
</g>
<!-- q_acc_lt -->
<g id="node6" class="node" pointer-events="visible" data-name="q_acc_lt">

<ellipse fill="none" stroke="black" cx="596.7" cy="-694.48" rx="62.45" ry="62.45" style=""/>
<ellipse fill="none" stroke="black" cx="596.7" cy="-694.48" rx="66.47" ry="66.47" style=""/>
<text text-anchor="middle" x="596.7" y="-697.48" font-family="Courier,monospace" font-size="10.00" style="">q_acc_lt</text>
<text text-anchor="middle" x="596.7" y="-685.48" font-family="Courier,monospace" font-size="10.00" style="">(Emitir '&lt;')</text>
</g>
<!-- q4_lt&#45;&gt;q_acc_lt -->
<g id="edge6" class="edge" data-name="q4_lt-&gt;q_acc_lt">

<path fill="none" stroke="black" d="M314.15,-515.22C325.12,-524.19 336.83,-533.37 348.11,-541.48 406.97,-583.77 477.6,-626.7 528.33,-656.28" style=""/>
<polygon fill="black" stroke="black" points="526.49,-659.26 536.9,-661.25 530.01,-653.2 526.49,-659.26" style=""/>
<text text-anchor="middle" x="428.17" y="-663.48" font-family="Times,serif" font-size="14.00" style="">outro</text>
<text text-anchor="middle" x="428.17" y="-646.68" font-family="Times,serif" font-size="14.00" style="">(Verifica próximo caractere)</text>
</g>
<!-- q_acc_le -->
<g id="node8" class="node" pointer-events="visible" data-name="q_acc_le">

<ellipse fill="none" stroke="black" cx="596.7" cy="-539.48" rx="66.46" ry="66.46" style=""/>
<ellipse fill="none" stroke="black" cx="596.7" cy="-539.48" rx="70.45" ry="70.45" style=""/>
<text text-anchor="middle" x="596.7" y="-542.48" font-family="Courier,monospace" font-size="10.00" style="">q_acc_le</text>
<text text-anchor="middle" x="596.7" y="-530.48" font-family="Courier,monospace" font-size="10.00" style="">(Emitir '&lt;=')</text>
</g>
<!-- q4_lt&#45;&gt;q_acc_le -->
<g id="edge4" class="edge" data-name="q4_lt-&gt;q_acc_le">

<path fill="none" stroke="black" d="M328.94,-484.83C382.57,-495.82 458.81,-511.43 516.06,-523.16" style=""/>
<polygon fill="black" stroke="black" points="515.26,-526.57 525.76,-525.15 516.66,-519.71 515.26,-526.57" style=""/>
<text text-anchor="middle" x="428.17" y="-524.68" font-family="Times,serif" font-size="14.00" style="">'='</text>
</g>
<!-- q_acc_ne -->
<g id="node10" class="node" pointer-events="visible" data-name="q_acc_ne">

<ellipse fill="none" stroke="black" cx="596.7" cy="-380.48" rx="66.46" ry="66.46" style=""/>
<ellipse fill="none" stroke="black" cx="596.7" cy="-380.48" rx="70.45" ry="70.45" style=""/>
<text text-anchor="middle" x="596.7" y="-383.48" font-family="Courier,monospace" font-size="10.00" style="">q_acc_ne</text>
<text text-anchor="middle" x="596.7" y="-371.48" font-family="Courier,monospace" font-size="10.00" style="">(Emitir '&lt;&gt;')</text>
</g>
<!-- q4_lt&#45;&gt;q_acc_ne -->
<g id="edge5" class="edge" data-name="q4_lt-&gt;q_acc_ne">

<path fill="none" stroke="black" d="M327.75,-453.93C381.91,-439.08 459.73,-417.75 517.56,-401.9" style=""/>
<polygon fill="black" stroke="black" points="518.3,-405.33 527.02,-399.31 516.45,-398.57 518.3,-405.33" style=""/>
<text text-anchor="middle" x="428.17" y="-450.68" font-family="Times,serif" font-size="14.00" style="">'&gt;'</text>
</g>
<!-- q_acc_gt -->
<g id="node7" class="node" pointer-events="visible" data-name="q_acc_gt">

<ellipse fill="none" stroke="black" cx="596.7" cy="-225.48" rx="62.45" ry="62.45" style=""/>
<ellipse fill="none" stroke="black" cx="596.7" cy="-225.48" rx="66.47" ry="66.47" style=""/>
<text text-anchor="middle" x="596.7" y="-228.48" font-family="Courier,monospace" font-size="10.00" style="">q_acc_gt</text>
<text text-anchor="middle" x="596.7" y="-216.48" font-family="Courier,monospace" font-size="10.00" style="">(Emitir '&gt;')</text>
</g>
<!-- q4_gt&#45;&gt;q_acc_gt -->
<g id="edge9" class="edge" data-name="q4_gt-&gt;q_acc_gt">

<path fill="none" stroke="black" d="M330.13,-225.48C384.47,-225.48 461.41,-225.48 518.5,-225.48" style=""/>
<polygon fill="black" stroke="black" points="518.49,-228.98 528.49,-225.48 518.49,-221.98 518.49,-228.98" style=""/>
<text text-anchor="middle" x="428.17" y="-246.48" font-family="Times,serif" font-size="14.00" style="">outro</text>
<text text-anchor="middle" x="428.17" y="-229.68" font-family="Times,serif" font-size="14.00" style="">(Verifica próximo caractere)</text>
</g>
<!-- q_acc_ge -->
<g id="node9" class="node" pointer-events="visible" data-name="q_acc_ge">

<ellipse fill="none" stroke="black" cx="596.7" cy="-70.48" rx="66.46" ry="66.46" style=""/>
<ellipse fill="none" stroke="black" cx="596.7" cy="-70.48" rx="70.45" ry="70.45" style=""/>
<text text-anchor="middle" x="596.7" y="-73.48" font-family="Courier,monospace" font-size="10.00" style="">q_acc_ge</text>
<text text-anchor="middle" x="596.7" y="-61.48" font-family="Courier,monospace" font-size="10.00" style="">(Emitir '&gt;=')</text>
</g>
<!-- q4_gt&#45;&gt;q_acc_ge -->
<g id="edge8" class="edge" data-name="q4_gt-&gt;q_acc_ge">

<path fill="none" stroke="black" d="M324.25,-197.23C380.02,-171.19 462.93,-132.47 522.43,-104.69" style=""/>
<polygon fill="black" stroke="black" points="523.56,-108.02 531.14,-100.62 520.6,-101.68 523.56,-108.02" style=""/>
<text text-anchor="middle" x="428.17" y="-188.68" font-family="Times,serif" font-size="14.00" style="">'='</text>
</g>
</g>
</svg>